HIERARCHY
ROOT Hips
{
	OFFSET 0.00000 0.00000 0.00000
	CHANNELS 6 Xposition Yposition Zposition Zrotation Yrotation Xrotation 
	JOINT LHipJoint
	{
		OFFSET 0 0 0
		CHANNELS 3 Zrotation Yrotation Xrotation
		JOINT LeftHip
		{
			OFFSET 1.62964 -1.40469 0.78906
			CHANNELS 3 Zrotation Yrotation Xrotation
			JOINT LeftKnee
			{
				OFFSET 2.29640 -6.30932 0.00000
				CHANNELS 3 Zrotation Yrotation Xrotation
				JOINT LeftAnkle
				{
					OFFSET 2.29451 -6.30412 0.00000
					CHANNELS 3 Zrotation Yrotation Xrotation
					JOINT LeftToe
					{
						OFFSET 0.03611 -0.09921 1.56387
						CHANNELS 3 Zrotation Yrotation Xrotation
						End Site
						{
							OFFSET 0.00000 -0.00000 0.80291
						}
					}
				}
			}
		}
	}
	JOINT RHipJoint
	{
		OFFSET 0 0 0
		CHANNELS 3 Zrotation Yrotation Xrotation
		JOINT RightHip
		{
			OFFSET -1.73712 -1.40469 0.78906
			CHANNELS 3 Zrotation Yrotation Xrotation
			JOINT RightKnee
			{
				OFFSET -2.28137 -6.26801 0.00000
				CHANNELS 3 Zrotation Yrotation Xrotation
				JOINT RightAnkle
				{
					OFFSET -2.28681 -6.28298 0.00000
					CHANNELS 3 Zrotation Yrotation Xrotation
					JOINT RightToe
					{
						OFFSET -0.15927 -0.43759 1.61103
						CHANNELS 3 Zrotation Yrotation Xrotation
						End Site
						{
							OFFSET -0.00000 -0.00000 0.84630
						}
					}
				}
			}
		}
	}
	JOINT lowerback
	{
		OFFSET 0 0 0
		CHANNELS 3 Zrotation Yrotation Xrotation
		JOINT Chest
		{
			OFFSET -0.04227 2.04338 -0.00225
			CHANNELS 3 Zrotation Yrotation Xrotation
			JOINT Chest2
			{
				OFFSET -0.02148 2.04482 -0.04273
				CHANNELS 3 Zrotation Yrotation Xrotation
				JOINT lowerneck
				{
					OFFSET 0 0 0
					CHANNELS 3 Zrotation Yrotation Xrotation
					JOINT Neck
					{
						OFFSET 0.09180 1.44629 0.19359
						CHANNELS 3 Zrotation Yrotation Xrotation
						JOINT Head
						{
							OFFSET 0.00887 1.40645 0.14750
							CHANNELS 3 Zrotation Yrotation Xrotation
							End Site
							{
								OFFSET -0.00669 1.50671 0.03707
							}
						}
					}
				}
				JOINT LeftCollar
				{
					OFFSET 0 0 0
					CHANNELS 3 Zrotation Yrotation Xrotation
					JOINT LeftShoulder
					{
						OFFSET 2.17674 1.86763 -0.06520
CHANNELS 3 Zrotation Xrotation Yrotation
						JOINT LeftElbow
						{
OFFSET 0 -4.657760 0.000000
CHANNELS 3 Zrotation Xrotation Yrotation
							JOINT LeftWrist
							{
OFFSET 0 -3.555390 0.000000
CHANNELS 3 Zrotation Xrotation Yrotation
								JOINT lhand
								{
									OFFSET 0 0 0
CHANNELS 3 Zrotation Xrotation Yrotation
									JOINT LFingers
									{
OFFSET 0 -0.707260 0.000000
CHANNELS 3 Zrotation Xrotation Yrotation
										End Site
										{
OFFSET 0 -0.570220 0.000000
										}
									}
								}
								JOINT LThumb
								{
OFFSET 0 0.000000 0.000000
CHANNELS 3 Zrotation Xrotation Yrotation
									End Site
									{
OFFSET 0 -0.578920 0.578920
									}
								}
							}
						}
					}
				}
				JOINT RightCollar
				{
					OFFSET 0 0 0
					CHANNELS 3 Zrotation Yrotation Xrotation
					JOINT RightShoulder
					{
						OFFSET -2.80694 1.55459 -0.32496
CHANNELS 3 Zrotation Xrotation Yrotation
						JOINT RightElbow
						{
OFFSET 0 -4.719250 -0.000000
CHANNELS 3 Zrotation Xrotation Yrotation
							JOINT RightWrist
							{
OFFSET 0 -3.569900 0.000000
CHANNELS 3 Zrotation Xrotation Yrotation
								JOINT rhand
								{
									OFFSET 0 0 0
CHANNELS 3 Zrotation Xrotation Yrotation
									JOINT RFingers
									{
OFFSET 0 -0.507760 0.000000
CHANNELS 3 Zrotation Xrotation Yrotation
										End Site
										{
OFFSET 0 -0.409370 0.000000
										}
									}
								}
								JOINT RThumb
								{
OFFSET 0 0.000000 0.000000
CHANNELS 3 Zrotation Xrotation Yrotation
									End Site
									{
OFFSET 0 -0.415620 0.415620
									}
								}
							}
						}
					}
				}
			}
		}
	}
}
MOTION
Frames: 6
Frame Time: 0.008333333333333333
7.438900 16.305000 31.598200 177.438000 -1.671000 -156.660000 0.000000 0.000000 0.000000 -19.577200 -17.724100 -21.004500 0.542800 4.720400 13.112900 0.343600 -0.915400 -10.789300 5.427800 -13.850000 -42.639800 0.000000 0.000000 0.000000 18.029300 12.987200 -19.086300 -0.227600 -3.070900 8.476200 -1.221900 -0.476500 -21.077100 -2.644200 10.095500 -29.286600 -7.116900 -1.818300 -29.233200 -0.203200 -0.613000 -1.108200 3.347900 -0.989100 14.239600 -1.260500 -1.634600 -5.567600 2.490900 -2.288800 5.827300 0.926400 -1.093700 2.881500 -0.000000 -0.000000 0.000000 3.017600 1.236800 -1.707000 6.357200 -10.856700 0.604700 16.764500 21.234100 11.459300 0.000000 0.000000 0.000000 -7.125000 0.000000 0.000000 -7.269400 18.082400 -4.692000 -0.000000 -0.000000 0.000000 1.453100 4.443400 1.669400 -14.888200 -23.990100 -3.180300 -19.454100 20.537100 51.931100 0.000000 0.000000 0.000000 7.125000 0.000000 -0.000000 59.052500 78.330600 -48.377200
7.431680 16.307269 31.591177 177.382997 -1.862497 -156.913743 0.000000 0.000000 0.000000 -19.699439 -17.959723 -20.550869 0.535105 4.687264 13.018830 0.345774 -0.896505 -10.828928 5.035288 -13.423425 -40.974934 0.000000 0.000000 0.000000 18.023607 12.799181 -18.708950 -0.219202 -3.013894 8.317484 -1.213252 -0.738589 -21.100507 -2.749629 10.277659 -29.881195 -7.098081 -1.833196 -29.052765 -0.276657 -0.619480 -1.017752 3.259910 -0.983464 14.262040 -1.165494 -1.701079 -5.798755 2.454415 -2.398566 6.276380 0.891646 -1.146623 3.079582 0.000000 0.000000 0.000000 3.145164 1.397188 -2.678449 6.450108 -11.010655 0.622328 17.012301 20.137728 11.397717 0.000000 0.000000 0.000000 -7.125000 0.000000 0.000000 -7.095772 18.128222 -4.571045 0.000000 0.000000 0.000000 1.469073 4.488473 1.558343 -14.837533 -23.919266 -3.159741 -18.831133 19.669159 51.103623 0.000000 0.000000 0.000000 7.125000 0.000000 0.000000 55.723631 77.750115 -44.850425
7.434267 16.304765 31.587670 177.458601 -1.981632 -157.065104 0.000000 0.000000 0.000000 -19.628508 -17.835461 -20.399172 0.533416 4.680054 12.998218 0.345546 -1.040638 -10.787202 5.023782 -13.410449 -40.925153 0.000000 0.000000 0.000000 18.177666 12.951772 -18.386342 -0.213596 -2.975269 8.209986 -1.214178 -0.966332 -21.195667 -2.794498 10.354736 -30.133156 -7.141774 -1.789780 -28.924968 -0.299921 -0.545385 -0.991169 3.290142 -0.948415 14.225865 -0.769243 -1.855921 -6.193730 2.064981 -2.630298 6.901267 0.681381 -1.263142 3.359226 0.000000 0.000000 0.000000 3.224482 1.470909 -3.052072 6.495626 -11.086104 0.631023 17.208322 19.722019 11.525391 0.000000 0.000000 0.000000 -7.125000 0.000000 0.000000 -6.958721 17.982013 -4.503967 0.000000 0.000000 0.000000 1.625623 4.627711 1.225919 -14.805771 -23.874805 -3.146906 -19.910674 21.042084 52.495883 0.000000 0.000000 0.000000 7.125000 0.000000 0.000000 61.553638 78.706524 -51.017418
7.431854 16.304084 31.585841 177.561219 -2.100453 -157.113691 0.000000 0.000000 0.000000 -19.498885 -17.879350 -20.333467 0.533384 4.679910 12.997930 0.346884 -1.022365 -10.813347 5.052276 -13.442414 -41.048113 0.000000 0.000000 0.000000 18.298422 13.282257 -18.147419 -0.210908 -2.956590 8.157862 -1.207470 -1.399861 -21.311838 -2.783008 10.335238 -30.069331 -7.114546 -1.760048 -28.923005 -0.255685 -0.509026 -0.941315 3.338896 -0.930346 14.280695 -0.543904 -1.843345 -6.801024 1.462558 -2.608661 7.803645 0.437336 -1.267206 3.777724 0.000000 0.000000 0.000000 3.142507 1.510345 -3.828585 6.642642 -11.329515 0.659668 17.388127 18.773390 11.455809 0.000000 0.000000 0.000000 -7.125000 0.000000 0.000000 -6.832547 18.041005 -4.412176 0.000000 0.000000 0.000000 1.616879 4.605291 1.064133 -14.748511 -23.794545 -3.123742 -20.528725 21.585177 52.714015 0.000000 0.000000 0.000000 7.125000 0.000000 0.000000 62.414984 79.028576 -52.124982
7.425294 16.304658 31.581570 177.551636 -2.291713 -157.129589 0.000000 0.000000 0.000000 -19.520013 -17.995149 -20.287489 0.534242 4.683658 13.008409 0.344183 -1.054534 -10.762125 5.192213 -13.596756 -41.646119 0.000000 0.000000 0.000000 18.287948 13.092373 -18.229521 -0.217663 -3.003663 8.289022 -1.216426 -1.415139 -21.394766 -2.789763 10.346608 -30.106625 -7.104674 -1.821416 -28.877230 -0.234418 -0.596335 -0.940029 3.323733 -0.967729 14.271064 -1.411840 -1.767104 -6.262122 2.630248 -2.506399 7.088211 0.986506 -1.197429 3.458312 0.000000 0.000000 0.000000 3.095184 1.589836 -4.554232 6.774949 -11.548222 0.685886 17.411251 17.837557 11.199773 0.000000 0.000000 0.000000 -7.125000 0.000000 0.000000 -6.815499 18.304490 -4.361080 0.000000 0.000000 0.000000 1.598626 4.524531 0.753459 -14.607196 -23.596053 -3.066991 -21.151710 22.354935 53.070825 0.000000 0.000000 0.000000 7.125000 0.000000 0.000000 64.110241 79.380860 -54.044246
7.421906 16.300703 31.576547 177.558334 -2.367791 -157.080968 0.000000 0.000000 0.000000 -19.520761 -17.938013 -20.381312 0.537133 4.695831 13.043096 0.343452 -1.185654 -10.718400 5.154841 -13.555435 -41.486237 0.000000 0.000000 0.000000 18.311162 12.791268 -18.412208 -0.221380 -3.028623 8.358347 -1.227749 -1.137956 -21.378972 -2.755375 10.287971 -29.914475 -7.087991 -1.816024 -28.951279 -0.249136 -0.591233 -0.950914 3.298971 -0.965929 14.291568 -1.209684 -1.858263 -6.676650 2.287644 -2.633560 7.634661 0.828293 -1.265796 3.722805 0.000000 0.000000 0.000000 3.091456 1.543773 -4.869576 6.815063 -11.614394 0.693912 17.531879 17.296144 11.455793 0.000000 0.000000 0.000000 -7.125000 0.000000 0.000000 -6.731895 18.030373 -4.347704 0.000000 0.000000 0.000000 1.686549 4.520607 0.580431 -14.555211 -23.522889 -3.046216 -21.721116 22.970611 53.577331 0.000000 0.000000 0.000000 7.125000 0.000000 0.000000 66.747943 79.733012 -56.856465
